# File created by Blade
# Date/Time:  Wed Jan 21 18:34:34 2015
#---------------------------------------------------------
:version 1.10
:name HOM
:units
  mass 1.0
  length 1.000000
  angle deg
:documentation
     Acclaim Skeleton File
:root
   axis xyz
   order TX TY TZ RX RY RZ
   position 0.000000 0.000000 0.000000
   orientation 0 0 0
:bonedata
   begin
      id 1
      name RightUpLeg_dum
      direction -1.000000 0.000000 0.000000
      length 3.693983
      axis 0.0 0.0 0.0 xyz
   end
   begin
      id 2
      name LeftUpLeg_dum
      direction 1.000000 0.000000 0.000000
      length 3.693983
      axis 0.0 0.0 0.0 xyz
   end
   begin
      id 3
      name Spine_dum
      direction 0.000000 1.000000 0.000000
      length 2.392956
      axis 0.0 0.0 0.0 xyz
   end
   begin
      id 4
      name RightUpLeg
      direction 0.000000 -1.000000 0.000000
      length 15.795667
      axis 0.0 0.0 0.0 xyz
      dof rx ry rz
   end
   begin
      id 5
      name RightLeg
      direction 0.000000 -1.000000 0.000000
      length 14.766989
      axis 0.0 0.0 0.0 xyz
      dof rx ry rz
   end
   begin
      id 6
      name RightFoot
      direction 0.000000 -0.258819 0.965926
      length 4.962790
      axis 15.0 0.0 0.0 xyz
      dof rx ry rz
   end
   begin
      id 7
      name RightToeBase
      direction 0.000000 0.000000 1.000000
      length 2.952750
      axis 0.0 0.0 0.0 xyz
      dof rx ry rz
   end
   begin
      id 8
      name LeftUpLeg
      direction 0.000000 -1.000000 0.000000
      length 15.795667
      axis 0.0 0.0 0.0 xyz
      dof rx ry rz
   end
   begin
      id 9
      name LeftLeg
      direction 0.000000 -1.000000 0.000000
      length 14.766989
      axis 0.0 0.0 0.0 xyz
      dof rx ry rz
   end
   begin
      id 10
      name LeftFoot
      direction 0.000000 -0.258819 0.965926
      length 4.962790
      axis 15.0 0.0 0.0 xyz
      dof rx ry rz
   end
   begin
      id 11
      name LeftToeBase
      direction 0.000000 0.000000 1.000000
      length 2.952750
      axis 0.0 0.0 0.0 xyz
      dof rx ry rz
   end
   begin
      id 12
      name Spine
      direction 0.000000 1.000000 0.000000
      length 0.000000
      axis 0.0 0.0 0.0 xyz
      dof rx ry rz
   end
   begin
      id 13
      name Spine_dum1
      direction 0.000000 1.000000 0.000000
      length 13.207411
      axis 0.0 0.0 0.0 xyz
   end
   begin
      id 14
      name Spine_dum2
      direction 0.000000 1.000000 0.000000
      length 13.207411
      axis 0.0 0.0 0.0 xyz
   end
   begin
      id 15
      name Spine_dum3
      direction 0.000000 1.000000 0.000000
      length 19.250100
      axis 0.0 0.0 0.0 xyz
   end
   begin
      id 16
      name RightShoulder
      direction -1.000000 0.000000 0.000000
      length 8.140465
      axis 0.0 0.0 90.0 xyz
      dof rx ry rz
   end
   begin
      id 17
      name RightArm
      direction -1.000000 0.000000 0.000000
      length 10.649840
      axis 0.0 0.0 90.0 xyz
      dof rx ry rz
   end
   begin
      id 18
      name RightForeArm
      direction -1.000000 0.000000 0.000000
      length 8.304624
      axis 0.0 0.0 90.0 xyz
      dof ry rz rx
   end
   begin
      id 19
      name RightHand
      direction -1.000000 0.000000 0.000000
      length 0.000000
      axis 0.0 0.0 90.0 xyz
      dof rx ry rz
   end
   begin
      id 20
      name RightHand_dum1
      direction -1.000000 0.000000 0.000000
      length 3.937000
      axis 0.0 0.0 90.0 xyz
   end
   begin
      id 21
      name RightHand_dum2
      direction 0.000000 0.000000 0.000000
      length 0.000000
      axis 0.0 0.0 90.0 xyz
   end
   begin
      id 22
      name RightHandThumb1
      direction 0.000000 0.000000 1.000000
      length 3.937000
      axis 0.0 0.0 90.0 xyz
      dof rx rz ry
   end
   begin
      id 23
      name LeftShoulder
      direction 1.000000 0.000000 0.000000
      length 8.140465
      axis 0.0 0.0 -90.0 xyz
      dof rx ry rz
   end
   begin
      id 24
      name LeftArm
      direction 1.000000 0.000000 0.000000
      length 10.649840
      axis 0.0 0.0 -90.0 xyz
      dof rx ry rz
   end
   begin
      id 25
      name LeftForeArm
      direction 1.000000 0.000000 0.000000
      length 8.304624
      axis 0.0 0.0 -90.0 xyz
      dof ry rz rx
   end
   begin
      id 26
      name LeftHand
      direction 1.000000 0.000000 0.000000
      length 0.000000
      axis 0.0 0.0 -90.0 xyz
      dof rx ry rz
   end
   begin
      id 27
      name LeftHand_dum1
      direction 1.000000 0.000000 0.000000
      length 3.937000
      axis 0.0 0.0 -90.0 xyz
   end
   begin
      id 28
      name LeftHand_dum2
      direction 0.000000 0.000000 0.000000
      length 0.000000
      axis 0.0 0.0 -90.0 xyz
   end
   begin
      id 29
      name LeftHandThumb1
      direction 0.000000 0.000000 1.000000
      length 3.937000
      axis 0.0 0.0 -90.0 xyz
      dof rx rz ry
   end
   begin
      id 30
      name Head
      direction 0.000000 1.000000 0.000000
      length 4.527550
      axis 0.0 0.0 0.0 xyz
      dof rx ry rz
   end
:hierarchy
   begin
      root RightUpLeg_dum LeftUpLeg_dum Spine_dum
      RightUpLeg_dum RightUpLeg
      LeftUpLeg_dum LeftUpLeg
      Spine_dum Spine
      RightUpLeg RightLeg
      RightLeg RightFoot
      RightFoot RightToeBase
      LeftUpLeg LeftLeg
      LeftLeg LeftFoot
      LeftFoot LeftToeBase
      Spine Spine_dum1 Spine_dum2 Spine_dum3
      Spine_dum1 RightShoulder
      Spine_dum2 LeftShoulder
      Spine_dum3 Head
      RightShoulder RightArm
      RightArm RightForeArm
      RightForeArm RightHand
      RightHand RightHand_dum1 RightHand_dum2
      RightHand_dum2 RightHandThumb1
      LeftShoulder LeftArm
      LeftArm LeftForeArm
      LeftForeArm LeftHand
      LeftHand LeftHand_dum1 LeftHand_dum2
      LeftHand_dum2 LeftHandThumb1
   end

# File created by Blade
# Date/Time:  Wed Jan 21 18:34:41 2015
# Frame Rate: 120.000 fps
#------------------------------------------------------
:FULLY-SPECIFIED
:DEGREES
227
root 1.977075 32.519983 -6.159304 54.100740 -50.959735 -9.805353
RightUpLeg -51.671445 11.946327 -10.676471
RightLeg 2.980403 -0.000000 -0.000000
RightFoot 2.028887 19.309267 20.346184
RightToeBase 17.725328 -0.000000 -0.000000
LeftUpLeg -35.587321 27.884268 -18.137605
LeftLeg -1.177418 -0.000000 0.000000
LeftFoot -14.670614 7.019695 -10.963366
LeftToeBase 3.742071 -0.000000 -0.000000
Spine -55.875717 -20.069299 30.866606
RightShoulder -28.447467 7.250067 -50.145241
RightArm -9.209344 -10.691834 38.440638
RightForeArm 5.974961 -0.000000 -6.366454
RightHand 12.084721 0.000000 2.569067
RightHandThumb1 -24.326973 -0.000000 -32.862282
LeftShoulder -1.686313 -9.865040 37.677348
LeftArm 45.144354 -2.443419 -39.621409
LeftForeArm 19.519081 -0.000000 -1.506235
LeftHand -23.088883 -0.000000 -6.981321
LeftHandThumb1 -26.253704 0.000000 33.147579
Head -6.579933 -35.721080 7.708833
228
root 1.977072 32.515882 -6.165749 54.333238 -51.549239 -10.016523
RightUpLeg -51.892855 12.138442 -10.849100
RightLeg 3.062984 -0.000000 -0.000000
RightFoot 2.226963 19.605490 20.394840
RightToeBase 17.838084 -0.000000 -0.000000
LeftUpLeg -35.600099 28.031522 -18.299969
LeftLeg -1.163267 -0.000000 0.000000
LeftFoot -14.704732 7.104927 -10.936981
LeftToeBase 3.741215 -0.000000 -0.000000
Spine -55.996695 -20.276348 31.202269
RightShoulder -28.539874 7.150650 -50.200733
RightArm -9.250285 -10.627190 38.428219
RightForeArm 5.831936 -0.000000 -6.447712
RightHand 11.989855 -0.000000 2.775104
RightHandThumb1 -24.326973 -0.000000 -32.862282
LeftShoulder -1.637604 -9.939793 37.711650
LeftArm 45.370488 -2.471592 -39.673310
LeftForeArm 19.581172 -0.000000 -1.435621
LeftHand -23.153461 -0.000000 -7.124455
LeftHandThumb1 -26.253704 0.000000 33.147579
Head -6.746586 -36.537366 7.821357
229
root 1.973078 32.511152 -6.169591 54.626778 -52.125386 -10.274202
RightUpLeg -52.112429 12.305794 -10.958563
RightLeg 3.125072 -0.000000 -0.000000
RightFoot 2.476427 19.945540 20.480804
RightToeBase 17.902602 -0.000000 -0.000000
LeftUpLeg -35.563784 28.061446 -18.339257
LeftLeg -1.183448 -0.000000 0.000000
LeftFoot -14.762350 7.345026 -10.896949
LeftToeBase 3.732212 -0.000000 -0.000000
Spine -56.144913 -20.441470 31.575139
RightShoulder -28.631994 7.066316 -50.296553
RightArm -9.330690 -10.645596 38.466106
RightForeArm 5.524393 -0.000000 -6.512427
RightHand 12.143396 0.000000 2.951744
RightHandThumb1 -24.326973 -0.000000 -32.862282
LeftShoulder -1.588948 -9.858323 37.700681
LeftArm 45.711681 -2.559315 -39.643047
LeftForeArm 19.454743 -0.000000 -1.398480
LeftHand -23.085200 -0.000000 -7.128406
LeftHandThumb1 -26.253704 0.000000 33.147579
Head -6.898973 -37.244594 7.914965
230
root 1.966122 32.507012 -6.176666 54.898490 -52.722761 -10.542134
RightUpLeg -52.313029 12.523990 -11.104323
RightLeg 3.186220 -0.000000 -0.000000
RightFoot 2.733378 20.260481 20.569812
RightToeBase 17.895698 -0.000000 -0.000000
LeftUpLeg -35.482448 28.092717 -18.321009
LeftLeg -1.163573 -0.000000 0.000000
LeftFoot -14.799549 7.545639 -10.869754
LeftToeBase 3.625929 -0.000000 -0.000000
Spine -56.252565 -20.630262 31.916418
RightShoulder -28.785042 7.022223 -50.368772
RightArm -9.341235 -10.826361 38.478992
RightForeArm 5.531203 -0.000000 -6.580733
RightHand 12.404395 -0.000000 3.196075
RightHandThumb1 -24.326973 -0.000000 -32.862282
LeftShoulder -1.588719 -9.934940 37.752125
LeftArm 45.955618 -2.567601 -39.715383
LeftForeArm 19.574774 -0.000000 -1.349755
LeftHand -23.346157 -0.000000 -7.320668
LeftHandThumb1 -26.253704 0.000000 33.147579
Head -7.038846 -38.025696 8.007791
231
root 1.962066 32.501478 -6.183254 55.193853 -53.299077 -10.802276
RightUpLeg -52.549095 12.702943 -11.235218
RightLeg 3.277321 -0.000000 -0.000000
RightFoot 2.943776 20.603929 20.619942
RightToeBase 17.957694 -0.000000 -0.000000
LeftUpLeg -35.404428 28.072353 -18.285176
LeftLeg -1.178369 -0.000000 0.000000
LeftFoot -14.844837 7.719457 -10.826380
LeftToeBase 3.582280 -0.000000 -0.000000
Spine -56.413356 -20.779152 32.202734
RightShoulder -28.884980 6.817411 -50.425323
RightArm -9.308075 -10.593465 38.481465
RightForeArm 5.045374 -0.000000 -6.677159
RightHand 12.355008 -0.000000 3.081582
RightHandThumb1 -24.326973 -0.000000 -32.862282
LeftShoulder -1.395469 -10.058289 37.780279
LeftArm 46.117739 -2.592635 -39.735434
LeftForeArm 19.524810 -0.000000 -1.211240
LeftHand -23.483298 0.000000 -7.407242
LeftHandThumb1 -26.253704 0.000000 33.147579
Head -6.972763 -38.785807 8.031402
232
root 1.956606 32.495030 -6.187043 55.510999 -53.936207 -11.099594
RightUpLeg -52.774727 12.934871 -11.417938
RightLeg 3.344882 -0.000000 -0.000000
RightFoot 3.326824 20.927889 20.934880
RightToeBase 17.709813 -0.000000 -0.000000
LeftUpLeg -35.299341 28.114423 -18.272564
LeftLeg -1.199171 -0.000000 0.000000
LeftFoot -14.902638 7.811424 -10.802484
LeftToeBase 3.624109 -0.000000 -0.000000
Spine -56.523132 -20.923412 32.494151
RightShoulder -28.999824 6.776070 -50.483998
RightArm -9.359171 -10.973993 38.518357
RightForeArm 5.091175 0.000000 -6.734912
RightHand 12.390801 -0.000000 3.501248
RightHandThumb1 -24.326973 -0.000000 -32.862282
LeftShoulder -1.347828 -10.225202 37.807594
LeftArm 46.355845 -2.510053 -39.706341
LeftForeArm 19.523261 -0.000000 -1.243676
LeftHand -23.028290 -0.000000 -7.506092
LeftHandThumb1 -26.253704 0.000000 33.147579
Head -7.002454 -39.518401 8.077275
233
root 1.949830 32.488043 -6.191767 55.854478 -54.567040 -11.418480
RightUpLeg -53.007173 13.152528 -11.570154
RightLeg 3.410845 -0.000000 -0.000000
RightFoot 3.645116 21.295983 21.151430
RightToeBase 17.741802 -0.000000 -0.000000
LeftUpLeg -35.191427 28.135953 -18.221736
LeftLeg -1.213588 -0.000000 0.000000
LeftFoot -14.960620 7.875210 -10.822082
LeftToeBase 3.609373 -0.000000 -0.000000
Spine -56.660745 -21.081178 32.820128
RightShoulder -29.015396 6.819538 -50.546475
RightArm -9.544445 -11.250265 38.545364
RightForeArm 5.150788 -0.000000 -6.698001
RightHand 12.325719 0.000000 3.566916
RightHandThumb1 -24.326973 -0.000000 -32.862282
LeftShoulder -1.291394 -10.293611 37.861282
LeftArm 46.613518 -2.305649 -39.521317
LeftForeArm 19.349459 -0.000000 -1.247619
LeftHand -22.909079 -0.000000 -7.407871
LeftHandThumb1 -26.253704 0.000000 33.147579
Head -6.973373 -40.146614 8.106362
234
root 1.939768 32.481492 -6.200557 56.234834 -55.199260 -11.778944
RightUpLeg -53.233790 13.393152 -11.710761
RightLeg 3.462382 -0.000000 -0.000000
RightFoot 3.898248 21.655282 21.198053
RightToeBase 17.795601 -0.000000 -0.000000
LeftUpLeg -35.059022 28.152681 -18.101615
LeftLeg -1.201967 -0.000000 0.000000
LeftFoot -14.994212 7.840775 -10.762196
LeftToeBase 3.509072 -0.000000 -0.000000
Spine -56.801794 -21.220319 33.120170
RightShoulder -29.057013 6.722191 -50.572490
RightArm -9.587350 -11.415855 38.556897
RightForeArm 5.068395 -0.000000 -6.718703
RightHand 12.418921 0.000000 3.870112
RightHandThumb1 -24.326973 -0.000000 -32.862282
LeftShoulder -1.198635 -10.679177 37.904660
LeftArm 46.633541 -1.953619 -39.406478
LeftForeArm 19.332414 -0.000000 -1.173781
LeftHand -22.878265 0.000000 -7.490735
LeftHandThumb1 -26.253704 0.000000 33.147579
Head -6.829361 -40.743276 8.107847
235
root 1.935640 32.473359 -6.208321 56.637979 -55.868452 -12.158192
RightUpLeg -53.482968 13.625069 -11.859145
RightLeg 3.535801 -0.000000 -0.000000
RightFoot 4.099411 22.033312 21.171268
RightToeBase 17.886572 -0.000000 -0.000000
LeftUpLeg -34.889812 28.057859 -17.925894
LeftLeg -1.203578 -0.000000 0.000000
LeftFoot -15.069231 8.039290 -10.661036
LeftToeBase 3.463166 -0.000000 -0.000000
Spine -56.919010 -21.339770 33.381905
RightShoulder -29.111649 6.654354 -50.633959
RightArm -9.603265 -11.432631 38.601698
RightForeArm 4.713999 -0.000000 -6.825425
RightHand 12.351299 0.000000 3.749519
RightHandThumb1 -24.326973 -0.000000 -32.862282
LeftShoulder -1.074556 -10.803444 37.980036
LeftArm 46.727115 -1.922730 -39.376975
LeftForeArm 19.234960 -0.000000 -1.066278
LeftHand -22.945075 -0.000000 -7.697153
LeftHandThumb1 -26.253704 0.000000 33.147579
Head -6.687305 -41.265362 8.116240
236
root 1.927545 32.466269 -6.218867 57.063427 -56.602695 -12.560743
RightUpLeg -53.752673 13.904316 -12.063531
RightLeg 3.610267 -0.000000 -0.000000
RightFoot 4.432566 22.416082 21.331309
RightToeBase 17.879939 -0.000000 -0.000000
LeftUpLeg -34.742486 28.110418 -17.850895
LeftLeg -1.194539 -0.000000 0.000000
LeftFoot -15.122603 7.986761 -10.718601
LeftToeBase 3.441636 -0.000000 -0.000000
Spine -57.032145 -21.470141 33.597817
RightShoulder -29.110141 6.583776 -50.617620
RightArm -9.623144 -11.544949 38.645213
RightForeArm 5.095865 0.000000 -6.860815
RightHand 12.061687 -0.000000 3.751012
RightHandThumb1 -24.326973 -0.000000 -32.862282
LeftShoulder -1.008332 -10.906674 38.047760
LeftArm 46.948457 -1.805181 -39.246607
LeftForeArm 19.085041 0.000000 -1.065232
LeftHand -22.976380 -0.000000 -7.615663
LeftHandThumb1 -26.253704 0.000000 33.147579
Head -6.529382 -41.752420 8.160058
